<svg width="1123" height="176" viewBox="0 0 1123 176" fill="none" xmlns="http://www.w3.org/2000/svg">
<mask id="path-1-outside-1_1_159" maskUnits="userSpaceOnUse" x="-1" y="-1" width="1125" height="178" fill="black">
<rect fill="white" x="-1" y="-1" width="1125" height="178"/>
<path d="M97.1393 174L88.9356 145.473H42.883L34.6793 174H0L45.3068 40.3169H85.9525L131.819 174H97.1393ZM74.0198 92.3358C73.3983 90.0985 72.5282 87.1153 71.4095 83.3863C70.4151 79.5331 69.3586 75.6177 68.2399 71.6401C67.2455 67.6626 66.4376 64.3065 65.8161 61.5719C65.3189 64.3065 64.511 67.7247 63.3923 71.8266C62.3979 75.8041 61.4035 79.7195 60.4091 83.5728C59.4147 87.3017 58.6068 90.2228 57.9853 92.3358L50.1545 118.998H81.8506L74.0198 92.3358ZM201.643 65.3009C196.796 65.3009 192.445 66.2953 188.592 68.2841C184.863 70.1485 181.693 72.9453 179.083 76.6742C176.473 80.4032 174.484 84.8779 173.117 90.0985C171.75 95.319 171.066 101.223 171.066 107.811C171.066 116.761 172.185 124.343 174.422 130.558C176.659 136.773 180.078 141.496 184.677 144.728C189.4 147.959 195.366 149.575 202.576 149.575C208.169 149.575 213.7 148.892 219.169 147.524C224.639 146.033 230.418 144.168 236.509 141.931V168.779C230.667 171.265 224.763 173.068 218.797 174.186C212.83 175.305 206.367 175.864 199.406 175.864C185.36 175.864 173.8 173.068 164.727 167.474C155.777 161.757 149.127 153.801 144.777 143.609C140.551 133.292 138.438 121.297 138.438 107.625C138.438 97.5564 139.805 88.3583 142.539 80.0303C145.274 71.578 149.314 64.3065 154.659 58.2159C160.128 52.1252 166.778 47.4019 174.608 44.0458C182.439 40.6898 191.513 39.0117 201.83 39.0117C208.293 39.0117 214.943 39.8197 221.78 41.4356C228.74 43.0514 235.39 45.351 241.73 48.3341L231.848 73.691C226.876 71.3294 221.904 69.3406 216.932 67.7247C211.96 66.1088 206.864 65.3009 201.643 65.3009ZM318.281 174H286.585V67.1654H252.092V40.8762H352.774V67.1654H318.281V174ZM483.28 124.218C483.28 134.411 481.229 143.423 477.127 151.253C473.026 158.96 466.811 164.988 458.483 169.339C450.155 173.689 439.651 175.864 426.973 175.864C409.074 175.864 395.401 171.265 385.954 162.067C376.508 152.869 371.784 140.315 371.784 124.405V40.8762H403.667V120.862C403.667 131.055 405.656 138.326 409.633 142.677C413.735 147.027 419.764 149.202 427.719 149.202C433.312 149.202 437.849 148.208 441.329 146.219C444.81 144.23 447.358 141.123 448.974 136.897C450.714 132.671 451.584 127.264 451.584 120.676V40.8762H483.28V124.218ZM593.302 174L585.098 145.473H539.046L530.842 174H496.163L541.469 40.3169H582.115L627.981 174H593.302ZM570.182 92.3358C569.561 90.0985 568.691 87.1153 567.572 83.3863C566.578 79.5331 565.521 75.6177 564.402 71.6401C563.408 67.6626 562.6 64.3065 561.979 61.5719C561.481 64.3065 560.673 67.7247 559.555 71.8266C558.56 75.8041 557.566 79.7195 556.572 83.5728C555.577 87.3017 554.769 90.2228 554.148 92.3358L546.317 118.998H578.013L570.182 92.3358ZM643.649 174V40.8762H675.345V148.084H728.11V174H643.649ZM805.717 174H741.02V155.915L757.427 149.016V65.8602L741.02 58.9617V40.8762H805.717V58.9617L789.31 65.8602V149.016L805.717 155.915V174ZM882.177 174H850.48V67.1654H815.988V40.8762H916.669V67.1654H882.177V174ZM1014.36 174H936.612V40.8762H1014.36V66.606H968.308V92.1494H1011V117.879H968.308V147.897H1014.36V174ZM1017.72 2.28151C1015.73 4.02169 1013.18 6.13477 1010.07 8.62074C1006.97 11.1067 1003.61 13.717 1000 16.4516C996.524 19.1861 993.106 21.7964 989.75 24.2824C986.394 26.644 983.535 28.6328 981.173 30.2487H960.291V27.8249C962.28 25.4632 964.704 22.7286 967.562 19.6212C970.421 16.3894 973.218 13.0955 975.953 9.73943C978.811 6.25907 981.111 3.1516 982.851 0.417032H1017.72V2.28151ZM1122.44 135.405C1122.44 142.988 1120.58 149.886 1116.85 156.101C1113.12 162.192 1107.53 167.039 1100.07 170.644C1092.61 174.124 1083.23 175.864 1071.91 175.864C1066.69 175.864 1061.85 175.554 1057.37 174.932C1052.9 174.311 1048.61 173.441 1044.51 172.322C1040.53 171.079 1036.61 169.525 1032.76 167.661V138.761C1039.47 141.869 1046.31 144.479 1053.27 146.592C1060.36 148.705 1067.13 149.762 1073.59 149.762C1077.69 149.762 1080.99 149.265 1083.47 148.27C1086.08 147.152 1087.95 145.722 1089.07 143.982C1090.31 142.117 1090.93 140.004 1090.93 137.643C1090.93 134.784 1089.94 132.36 1087.95 130.371C1086.08 128.258 1083.29 126.269 1079.56 124.405C1075.83 122.416 1071.29 120.179 1065.95 117.693C1061.97 115.953 1058.06 113.964 1054.2 111.726C1050.47 109.365 1047.06 106.692 1043.95 103.709C1040.96 100.602 1038.54 96.9349 1036.68 92.7087C1034.94 88.3583 1034.07 83.262 1034.07 77.42C1034.07 69.092 1035.99 62.1313 1039.85 56.5378C1043.82 50.8201 1049.35 46.4697 1056.44 43.4865C1063.52 40.5033 1071.85 39.0117 1081.42 39.0117C1089.25 39.0117 1096.46 39.8818 1103.05 41.622C1109.64 43.3622 1116.04 45.5996 1122.26 48.3341L1112.19 73.1317C1106.22 70.5214 1100.63 68.5327 1095.41 67.1654C1090.31 65.6738 1085.34 64.928 1080.49 64.928C1077.14 64.928 1074.34 65.4252 1072.1 66.4196C1069.86 67.2897 1068.19 68.5948 1067.07 70.335C1065.95 71.9509 1065.39 73.8775 1065.39 76.1149C1065.39 78.7251 1066.26 81.0247 1068 83.0134C1069.74 84.8779 1072.47 86.8045 1076.2 88.7933C1079.93 90.7821 1084.84 93.2059 1090.93 96.0648C1097.52 99.048 1103.18 102.28 1107.9 105.76C1112.62 109.24 1116.23 113.342 1118.71 118.066C1121.2 122.665 1122.44 128.445 1122.44 135.405Z"/>
</mask>
<path d="M97.1393 174L96.5421 174.172L96.6714 174.621H97.1393V174ZM88.9356 145.473L89.5329 145.302L89.4036 144.852H88.9356V145.473ZM42.883 145.473V144.852H42.4151L42.2857 145.302L42.883 145.473ZM34.6793 174V174.621H35.1473L35.2766 174.172L34.6793 174ZM0 174L-0.588607 173.801L-0.866847 174.621H0V174ZM45.3068 40.3169V39.6954H44.8612L44.7182 40.1174L45.3068 40.3169ZM85.9525 40.3169L86.5403 40.1152L86.3963 39.6954H85.9525V40.3169ZM131.819 174V174.621H132.689L132.406 173.798L131.819 174ZM74.0198 92.3358L73.4209 92.5022L73.4235 92.511L74.0198 92.3358ZM71.4095 83.3863L70.8078 83.5416L70.8108 83.5533L70.8143 83.5649L71.4095 83.3863ZM68.2399 71.6401L67.637 71.7908L67.6392 71.7997L67.6416 71.8084L68.2399 71.6401ZM65.8161 61.5719L66.4221 61.4342L65.2046 61.4608L65.8161 61.5719ZM63.3923 71.8266L62.7925 71.663L62.7893 71.6758L63.3923 71.8266ZM60.4091 83.5728L61.0096 83.7329L61.0109 83.7281L60.4091 83.5728ZM57.9853 92.3358L57.389 92.1605L57.389 92.1607L57.9853 92.3358ZM50.1545 118.998L49.5582 118.823L49.3242 119.619H50.1545V118.998ZM81.8506 118.998V119.619H82.6809L82.4469 118.823L81.8506 118.998ZM97.7366 173.828L89.5329 145.302L88.3383 145.645L96.5421 174.172L97.7366 173.828ZM88.9356 144.852H42.883V146.095H88.9356V144.852ZM42.2857 145.302L34.082 173.828L35.2766 174.172L43.4803 145.645L42.2857 145.302ZM34.6793 173.379H0V174.621H34.6793V173.379ZM0.588607 174.199L45.8954 40.5164L44.7182 40.1174L-0.588607 173.801L0.588607 174.199ZM45.3068 40.9384H85.9525V39.6954H45.3068V40.9384ZM85.3646 40.5186L131.231 174.202L132.406 173.798L86.5403 40.1152L85.3646 40.5186ZM131.819 173.379H97.1393V174.621H131.819V173.379ZM74.6186 92.1695C73.9955 89.9262 73.124 86.9385 72.0048 83.2077L70.8143 83.5649C71.9324 87.2921 72.8011 90.2707 73.421 92.5022L74.6186 92.1695ZM72.0113 83.231C71.0158 79.3733 69.9581 75.4536 68.8382 71.4718L67.6416 71.8084C68.7592 75.7818 69.8145 79.6929 70.8078 83.5416L72.0113 83.231ZM68.8429 71.4894C67.8491 67.5144 67.0423 64.1629 66.4221 61.4342L65.2101 61.7097C65.8329 64.4501 66.642 67.8108 67.637 71.7908L68.8429 71.4894ZM65.2046 61.4608C64.7118 64.1711 63.9088 67.5705 62.7927 71.663L63.9919 71.9901C65.1131 67.879 65.926 64.4419 66.4276 61.6831L65.2046 61.4608ZM62.7893 71.6758C61.7953 75.6519 60.8013 79.5658 59.8073 83.4175L61.0109 83.7281C62.0057 79.8733 63.0005 75.9563 63.9952 71.9773L62.7893 71.6758ZM59.8086 83.4126C58.8147 87.1397 58.0084 90.0548 57.389 92.1605L58.5815 92.5112C59.2052 90.3907 60.0147 87.4638 61.0096 83.7329L59.8086 83.4126ZM57.389 92.1607L49.5582 118.823L50.7508 119.173L58.5816 92.511L57.389 92.1607ZM50.1545 119.619H81.8506V118.376H50.1545V119.619ZM82.4469 118.823L74.6161 92.1607L73.4235 92.511L81.2543 119.173L82.4469 118.823ZM188.592 68.2841L188.87 68.84L188.877 68.8363L188.592 68.2841ZM179.083 76.6742L179.592 77.0306L179.083 76.6742ZM173.117 90.0985L173.718 90.2559L173.117 90.0985ZM174.422 130.558L175.007 130.347L174.422 130.558ZM184.677 144.728L184.319 145.236L184.326 145.241L184.677 144.728ZM219.169 147.524L219.32 148.127L219.333 148.124L219.169 147.524ZM236.509 141.931H237.131V141.041L236.295 141.348L236.509 141.931ZM236.509 168.779L236.752 169.351L237.131 169.19V168.779H236.509ZM218.797 174.186L218.682 173.576L218.797 174.186ZM164.727 167.474L164.392 167.998L164.401 168.003L164.727 167.474ZM144.777 143.609L144.202 143.845L144.205 143.853L144.777 143.609ZM142.539 80.0303L143.13 80.2242L143.131 80.2216L142.539 80.0303ZM154.659 58.2159L154.196 57.8006L154.191 57.8059L154.659 58.2159ZM174.608 44.0458L174.853 44.6171L174.608 44.0458ZM221.78 41.4356L221.637 42.0404L221.639 42.041L221.78 41.4356ZM241.73 48.3341L242.309 48.5598L242.52 48.019L241.994 47.7718L241.73 48.3341ZM231.848 73.691L231.581 74.2524L232.185 74.539L232.427 73.9167L231.848 73.691ZM216.932 67.7247L217.124 67.1337L216.932 67.7247ZM201.643 64.6794C196.708 64.6794 192.258 65.6924 188.307 67.7318L188.877 68.8363C192.632 66.8982 196.883 65.9224 201.643 65.9224V64.6794ZM188.314 67.7282C184.484 69.643 181.238 72.5121 178.574 76.3178L179.592 77.0306C182.149 73.3784 185.242 70.654 188.87 68.8399L188.314 67.7282ZM178.574 76.3178C175.914 80.1172 173.898 84.6621 172.516 89.941L173.718 90.2559C175.07 85.0937 177.031 80.6892 179.592 77.0306L178.574 76.3178ZM172.516 89.941C171.132 95.2228 170.444 101.181 170.444 107.811H171.687C171.687 101.265 172.367 95.4152 173.718 90.2559L172.516 89.941ZM170.444 107.811C170.444 116.808 171.569 124.466 173.837 130.768L175.007 130.347C172.801 124.219 171.687 116.713 171.687 107.811H170.444ZM173.837 130.768C176.11 137.082 179.598 141.919 184.319 145.236L185.034 144.219C180.557 141.073 177.209 136.463 175.007 130.347L173.837 130.768ZM184.326 145.241C189.176 148.559 195.274 150.197 202.576 150.197V148.954C195.459 148.954 189.624 147.359 185.028 144.215L184.326 145.241ZM202.576 150.197C208.22 150.197 213.802 149.507 219.32 148.127L219.019 146.921C213.599 148.277 208.118 148.954 202.576 148.954V150.197ZM219.333 148.124C224.822 146.627 230.618 144.757 236.723 142.514L236.295 141.348C230.219 143.58 224.456 145.439 219.006 146.925L219.333 148.124ZM235.888 141.931V168.779H237.131V141.931H235.888ZM236.266 168.208C230.463 170.677 224.602 172.466 218.682 173.576L218.911 174.797C224.924 173.67 230.871 171.854 236.752 169.351L236.266 168.208ZM218.682 173.576C212.758 174.686 206.334 175.243 199.406 175.243V176.486C206.4 176.486 212.902 175.924 218.911 174.797L218.682 173.576ZM199.406 175.243C185.44 175.243 174.002 172.462 165.053 166.945L164.401 168.003C173.599 173.674 185.281 176.486 199.406 176.486V175.243ZM165.061 166.951C156.222 161.303 149.652 153.448 145.348 143.365L144.205 143.853C148.602 154.155 155.333 162.21 164.392 167.998L165.061 166.951ZM145.352 143.373C141.162 133.146 139.059 121.234 139.059 107.625H137.816C137.816 121.36 139.939 133.438 144.202 143.845L145.352 143.373ZM139.059 107.625C139.059 97.6126 140.419 88.4811 143.13 80.2242L141.949 79.8364C139.191 88.2355 137.816 97.5001 137.816 107.625H139.059ZM143.131 80.2216C145.842 71.842 149.842 64.6469 155.126 58.6258L154.191 57.8059C148.786 63.9661 144.706 71.3139 141.948 79.839L143.131 80.2216ZM155.121 58.6311C160.527 52.6104 167.102 47.9391 174.853 44.6171L174.364 43.4746C166.453 46.8647 159.728 51.6401 154.196 57.8006L155.121 58.6311ZM174.853 44.6171C182.592 41.3004 191.58 39.6332 201.83 39.6332V38.3903C191.446 38.3903 182.286 40.0792 174.364 43.4746L174.853 44.6171ZM201.83 39.6332C208.241 39.6332 214.843 40.4346 221.637 42.0404L221.923 40.8307C215.043 39.2047 208.345 38.3903 201.83 38.3903V39.6332ZM221.639 42.041C228.558 43.6471 235.166 45.9324 241.465 48.8965L241.994 47.7718C235.615 44.7696 228.923 42.4558 221.92 40.8302L221.639 42.041ZM241.151 48.1085L231.269 73.4654L232.427 73.9167L242.309 48.5598L241.151 48.1085ZM232.115 73.1297C227.12 70.7571 222.123 68.7582 217.124 67.1337L216.74 68.3158C221.685 69.923 226.632 71.9016 231.581 74.2524L232.115 73.1297ZM217.124 67.1337C212.09 65.4976 206.929 64.6794 201.643 64.6794V65.9224C206.799 65.9224 211.83 66.72 216.74 68.3158L217.124 67.1337ZM318.281 174V174.621H318.903V174H318.281ZM286.585 174H285.963V174.621H286.585V174ZM286.585 67.1654H287.206V66.5439H286.585V67.1654ZM252.092 67.1654H251.471V67.7869H252.092V67.1654ZM252.092 40.8762V40.2547H251.471V40.8762H252.092ZM352.774 40.8762H353.395V40.2547H352.774V40.8762ZM352.774 67.1654V67.7869H353.395V67.1654H352.774ZM318.281 67.1654V66.5439H317.66V67.1654H318.281ZM318.281 173.379H286.585V174.621H318.281V173.379ZM287.206 174V67.1654H285.963V174H287.206ZM286.585 66.5439H252.092V67.7869H286.585V66.5439ZM252.714 67.1654V40.8762H251.471V67.1654H252.714ZM252.092 41.4977H352.774V40.2547H252.092V41.4977ZM352.152 40.8762V67.1654H353.395V40.8762H352.152ZM352.774 66.5439H318.281V67.7869H352.774V66.5439ZM317.66 67.1654V174H318.903V67.1654H317.66ZM477.127 151.253L477.676 151.545L477.678 151.542L477.127 151.253ZM458.483 169.339L458.77 169.89L458.483 169.339ZM385.954 162.067L385.521 162.513L385.954 162.067ZM371.784 40.8762V40.2547H371.163V40.8762H371.784ZM403.667 40.8762H404.288V40.2547H403.667V40.8762ZM409.633 142.677L409.174 143.096L409.181 143.103L409.633 142.677ZM448.974 136.897L448.399 136.66L448.396 136.668L448.393 136.675L448.974 136.897ZM451.584 40.8762V40.2547H450.963V40.8762H451.584ZM483.28 40.8762H483.902V40.2547H483.28V40.8762ZM482.659 124.218C482.659 134.326 480.625 143.236 476.577 150.965L477.678 151.542C481.833 143.609 483.902 134.496 483.902 124.218H482.659ZM476.579 150.961C472.54 158.549 466.421 164.491 458.195 168.788L458.77 169.89C467.201 165.486 473.511 159.371 477.676 151.545L476.579 150.961ZM458.195 168.788C449.981 173.079 439.585 175.243 426.973 175.243V176.486C439.718 176.486 450.328 174.3 458.77 169.89L458.195 168.788ZM426.973 175.243C409.177 175.243 395.682 170.672 386.388 161.622L385.521 162.513C395.12 171.859 408.971 176.486 426.973 176.486V175.243ZM386.388 161.622C377.086 152.565 372.406 140.185 372.406 124.405H371.163C371.163 140.446 375.93 153.174 385.521 162.513L386.388 161.622ZM372.406 124.405V40.8762H371.163V124.405H372.406ZM371.784 41.4977H403.667V40.2547H371.784V41.4977ZM403.045 40.8762V120.862H404.288V40.8762H403.045ZM403.045 120.862C403.045 131.106 405.039 138.572 409.175 143.096L410.092 142.257C406.273 138.08 404.288 131.004 404.288 120.862H403.045ZM409.181 143.103C413.435 147.615 419.651 149.824 427.719 149.824V148.581C419.876 148.581 414.035 146.439 410.085 142.25L409.181 143.103ZM427.719 149.824C433.38 149.824 438.034 148.818 441.638 146.759L441.021 145.68C437.664 147.598 433.245 148.581 427.719 148.581V149.824ZM441.638 146.759C445.259 144.69 447.894 141.461 449.554 137.119L448.393 136.675C446.822 140.785 444.361 143.771 441.021 145.68L441.638 146.759ZM449.548 137.133C451.33 132.807 452.206 127.312 452.206 120.676H450.963C450.963 127.215 450.098 132.535 448.399 136.66L449.548 137.133ZM452.206 120.676V40.8762H450.963V120.676H452.206ZM451.584 41.4977H483.28V40.2547H451.584V41.4977ZM482.659 40.8762V124.218H483.902V40.8762H482.659ZM593.302 174L592.705 174.172L592.834 174.621H593.302V174ZM585.098 145.473L585.695 145.302L585.566 144.852H585.098V145.473ZM539.046 145.473V144.852H538.578L538.448 145.302L539.046 145.473ZM530.842 174V174.621H531.31L531.439 174.172L530.842 174ZM496.163 174L495.574 173.801L495.296 174.621H496.163V174ZM541.469 40.3169V39.6954H541.024L540.881 40.1174L541.469 40.3169ZM582.115 40.3169L582.703 40.1152L582.559 39.6954H582.115V40.3169ZM627.981 174V174.621H628.851L628.569 173.798L627.981 174ZM570.182 92.3358L569.583 92.5022L569.586 92.511L570.182 92.3358ZM567.572 83.3863L566.97 83.5416L566.973 83.5533L566.977 83.5649L567.572 83.3863ZM564.402 71.6401L563.799 71.7908L563.802 71.7997L563.804 71.8084L564.402 71.6401ZM561.979 61.5719L562.585 61.4342L561.367 61.4608L561.979 61.5719ZM559.555 71.8266L558.955 71.663L558.952 71.6758L559.555 71.8266ZM556.572 83.5728L557.172 83.7329L557.173 83.7281L556.572 83.5728ZM554.148 92.3358L553.552 92.1605L553.552 92.1607L554.148 92.3358ZM546.317 118.998L545.721 118.823L545.487 119.619H546.317V118.998ZM578.013 118.998V119.619H578.843L578.609 118.823L578.013 118.998ZM593.899 173.828L585.695 145.302L584.501 145.645L592.705 174.172L593.899 173.828ZM585.098 144.852H539.046V146.095H585.098V144.852ZM538.448 145.302L530.245 173.828L531.439 174.172L539.643 145.645L538.448 145.302ZM530.842 173.379H496.163V174.621H530.842V173.379ZM496.751 174.199L542.058 40.5164L540.881 40.1174L495.574 173.801L496.751 174.199ZM541.469 40.9384H582.115V39.6954H541.469V40.9384ZM581.527 40.5186L627.393 174.202L628.569 173.798L582.703 40.1152L581.527 40.5186ZM627.981 173.379H593.302V174.621H627.981V173.379ZM570.781 92.1695C570.158 89.9262 569.287 86.9385 568.167 83.2077L566.977 83.5649C568.095 87.2921 568.964 90.2707 569.583 92.5022L570.781 92.1695ZM568.174 83.231C567.178 79.3733 566.121 75.4536 565.001 71.4718L563.804 71.8084C564.922 75.7818 565.977 79.6929 566.97 83.5416L568.174 83.231ZM565.005 71.4894C564.012 67.5144 563.205 64.1629 562.585 61.4342L561.373 61.7097C561.995 64.4501 562.805 67.8108 563.799 71.7908L565.005 71.4894ZM561.367 61.4608C560.874 64.1711 560.071 67.5705 558.955 71.663L560.154 71.9901C561.276 67.879 562.089 64.4419 562.59 61.6831L561.367 61.4608ZM558.952 71.6758C557.958 75.6519 556.964 79.5658 555.97 83.4175L557.173 83.7281C558.168 79.8733 559.163 75.9563 560.158 71.9773L558.952 71.6758ZM555.971 83.4126C554.977 87.1397 554.171 90.0548 553.552 92.1605L554.744 92.5112C555.368 90.3907 556.177 87.4638 557.172 83.7329L555.971 83.4126ZM553.552 92.1607L545.721 118.823L546.913 119.173L554.744 92.511L553.552 92.1607ZM546.317 119.619H578.013V118.376H546.317V119.619ZM578.609 118.823L570.779 92.1607L569.586 92.511L577.417 119.173L578.609 118.823ZM643.649 174H643.027V174.621H643.649V174ZM643.649 40.8762V40.2547H643.027V40.8762H643.649ZM675.345 40.8762H675.966V40.2547H675.345V40.8762ZM675.345 148.084H674.723V148.705H675.345V148.084ZM728.109 148.084H728.731V147.462H728.109V148.084ZM728.109 174V174.621H728.731V174H728.109ZM644.27 174V40.8762H643.027V174H644.27ZM643.649 41.4977H675.345V40.2547H643.649V41.4977ZM674.723 40.8762V148.084H675.966V40.8762H674.723ZM675.345 148.705H728.109V147.462H675.345V148.705ZM727.488 148.084V174H728.731V148.084H727.488ZM728.109 173.379H643.649V174.621H728.109V173.379ZM805.717 174V174.621H806.338V174H805.717ZM741.02 174H740.398V174.621H741.02V174ZM741.02 155.915L740.779 155.342L740.398 155.502V155.915H741.02ZM757.427 149.016L757.668 149.589L758.048 149.429V149.016H757.427ZM757.427 65.8602H758.048V65.4473L757.668 65.2873L757.427 65.8602ZM741.02 58.9617H740.398V59.3745L740.779 59.5346L741.02 58.9617ZM741.02 40.8762V40.2547H740.398V40.8762H741.02ZM805.717 40.8762H806.338V40.2547H805.717V40.8762ZM805.717 58.9617L805.958 59.5346L806.338 59.3745V58.9617H805.717ZM789.31 65.8602L789.069 65.2873L788.688 65.4473V65.8602H789.31ZM789.31 149.016H788.688V149.429L789.069 149.589L789.31 149.016ZM805.717 155.915H806.338V155.502L805.958 155.342L805.717 155.915ZM805.717 173.379H741.02V174.621H805.717V173.379ZM741.641 174V155.915H740.398V174H741.641ZM741.26 156.487L757.668 149.589L757.186 148.443L740.779 155.342L741.26 156.487ZM758.048 149.016V65.8602H756.805V149.016H758.048ZM757.668 65.2873L741.26 58.3887L740.779 59.5346L757.186 66.4331L757.668 65.2873ZM741.641 58.9617V40.8762H740.398V58.9617H741.641ZM741.02 41.4977H805.717V40.2547H741.02V41.4977ZM805.095 40.8762V58.9617H806.338V40.8762H805.095ZM805.476 58.3887L789.069 65.2873L789.55 66.4331L805.958 59.5346L805.476 58.3887ZM788.688 65.8602V149.016H789.931V65.8602H788.688ZM789.069 149.589L805.476 156.487L805.958 155.342L789.55 148.443L789.069 149.589ZM805.095 155.915V174H806.338V155.915H805.095ZM882.177 174V174.621H882.798V174H882.177ZM850.48 174H849.859V174.621H850.48V174ZM850.48 67.1654H851.102V66.5439H850.48V67.1654ZM815.988 67.1654H815.366V67.7869H815.988V67.1654ZM815.988 40.8762V40.2547H815.366V40.8762H815.988ZM916.669 40.8762H917.291V40.2547H916.669V40.8762ZM916.669 67.1654V67.7869H917.291V67.1654H916.669ZM882.177 67.1654V66.5439H881.555V67.1654H882.177ZM882.177 173.379H850.48V174.621H882.177V173.379ZM851.102 174V67.1654H849.859V174H851.102ZM850.48 66.5439H815.988V67.7869H850.48V66.5439ZM816.609 67.1654V40.8762H815.366V67.1654H816.609ZM815.988 41.4977H916.669V40.2547H815.988V41.4977ZM916.048 40.8762V67.1654H917.291V40.8762H916.048ZM916.669 66.5439H882.177V67.7869H916.669V66.5439ZM881.555 67.1654V174H882.798V67.1654H881.555ZM1014.36 174V174.621H1014.98V174H1014.36ZM936.612 174H935.991V174.621H936.612V174ZM936.612 40.8762V40.2547H935.991V40.8762H936.612ZM1014.36 40.8762H1014.98V40.2547H1014.36V40.8762ZM1014.36 66.606V67.2275H1014.98V66.606H1014.36ZM968.308 66.606V65.9845H967.687V66.606H968.308ZM968.308 92.1494H967.687V92.7709H968.308V92.1494ZM1011 92.1494H1011.63V91.5279H1011V92.1494ZM1011 117.879V118.501H1011.63V117.879H1011ZM968.308 117.879V117.258H967.687V117.879H968.308ZM968.308 147.897H967.687V148.519H968.308V147.897ZM1014.36 147.897H1014.98V147.276H1014.36V147.897ZM1017.72 2.28151L1018.13 2.74923L1018.34 2.56352V2.28151H1017.72ZM1010.07 8.62074L1010.46 9.10605L1010.07 8.62074ZM1000 16.4516L999.629 15.9563L999.62 15.9629L1000 16.4516ZM989.75 24.2824L990.107 24.7906L990.114 24.7863L990.12 24.7818L989.75 24.2824ZM981.173 30.2487V30.8702H981.365L981.524 30.7616L981.173 30.2487ZM960.291 30.2487H959.669V30.8702H960.291V30.2487ZM960.291 27.8249L959.816 27.4245L959.669 27.598V27.8249H960.291ZM967.562 19.6212L968.02 20.042L968.028 20.0329L967.562 19.6212ZM975.953 9.73943L975.472 9.34494L975.471 9.34685L975.953 9.73943ZM982.851 0.41703V-0.20446H982.51L982.327 0.0833664L982.851 0.41703ZM1017.72 0.41703H1018.34V-0.20446H1017.72V0.41703ZM1014.36 173.379H936.612V174.621H1014.36V173.379ZM937.234 174V40.8762H935.991V174H937.234ZM936.612 41.4977H1014.36V40.2547H936.612V41.4977ZM1013.74 40.8762V66.606H1014.98V40.8762H1013.74ZM1014.36 65.9845H968.308V67.2275H1014.36V65.9845ZM967.687 66.606V92.1494H968.93V66.606H967.687ZM968.308 92.7709H1011V91.5279H968.308V92.7709ZM1010.38 92.1494V117.879H1011.63V92.1494H1010.38ZM1011 117.258H968.308V118.501H1011V117.258ZM967.687 117.879V147.897H968.93V117.879H967.687ZM968.308 148.519H1014.36V147.276H968.308V148.519ZM1013.74 147.897V174H1014.98V147.897H1013.74ZM1017.31 1.81379C1015.33 3.54577 1012.79 5.65263 1009.68 8.13544L1010.46 9.10605C1013.57 6.61691 1016.13 4.49761 1018.13 2.74923L1017.31 1.81379ZM1009.68 8.13544C1006.58 10.6177 1003.23 13.2246 999.629 15.9564L1000.38 16.9467C1003.99 14.2093 1007.35 11.5958 1010.46 9.10605L1009.68 8.13544ZM999.62 15.9629C996.144 18.694 992.731 21.3007 989.38 23.783L990.12 24.7818C993.481 22.2921 996.904 19.6782 1000.39 16.9402L999.62 15.9629ZM989.392 23.7741C986.037 26.1348 983.181 28.1219 980.822 29.7358L981.524 30.7616C983.889 29.1437 986.75 27.1533 990.107 24.7906L989.392 23.7741ZM981.173 29.6272H960.291V30.8702H981.173V29.6272ZM960.912 30.2487V27.8249H959.669V30.2487H960.912ZM960.766 28.2252C962.748 25.8725 965.165 23.145 968.02 20.0419L967.105 19.2004C964.242 22.3123 961.812 25.0539 959.816 27.4245L960.766 28.2252ZM968.028 20.0329C970.892 16.7949 973.695 13.4946 976.434 10.132L975.471 9.34685C972.741 12.6964 969.95 15.9839 967.097 19.2094L968.028 20.0329ZM976.433 10.1339C979.302 6.64104 981.618 3.51276 983.375 0.750694L982.327 0.0833664C980.604 2.79044 978.321 5.8771 975.472 9.34494L976.433 10.1339ZM982.851 1.03852H1017.72V-0.20446H982.851V1.03852ZM1017.1 0.41703V2.28151H1018.34V0.41703H1017.1ZM1116.85 156.101L1117.38 156.426L1117.38 156.421L1116.85 156.101ZM1100.07 170.644L1100.33 171.207L1100.34 171.203L1100.07 170.644ZM1057.37 174.932L1057.29 175.548L1057.37 174.932ZM1044.51 172.322L1044.32 172.915L1044.33 172.919L1044.34 172.922L1044.51 172.322ZM1032.76 167.661H1032.14V168.05L1032.49 168.22L1032.76 167.661ZM1032.76 138.761L1033.02 138.197L1032.14 137.789V138.761H1032.76ZM1053.27 146.592L1053.09 147.187L1053.09 147.188L1053.27 146.592ZM1083.47 148.27L1083.71 148.847L1083.71 148.844L1083.72 148.841L1083.47 148.27ZM1089.07 143.982L1088.55 143.637L1088.55 143.646L1089.07 143.982ZM1087.95 130.371L1087.48 130.782L1087.5 130.797L1087.51 130.811L1087.95 130.371ZM1079.56 124.405L1079.27 124.953L1079.27 124.957L1079.28 124.961L1079.56 124.405ZM1065.95 117.693L1066.21 117.129L1066.2 117.126L1066.2 117.123L1065.95 117.693ZM1054.2 111.726L1053.87 112.251L1053.88 112.258L1053.89 112.264L1054.2 111.726ZM1043.95 103.709L1043.5 104.14L1043.51 104.149L1043.52 104.157L1043.95 103.709ZM1036.68 92.7087L1036.1 92.9395L1036.1 92.9496L1036.11 92.9596L1036.68 92.7087ZM1039.85 56.5378L1039.34 56.1829L1039.33 56.1853L1039.85 56.5378ZM1056.44 43.4865L1056.2 42.9137L1056.44 43.4865ZM1122.26 48.3341L1122.83 48.5679L1123.06 48.0085L1122.51 47.7653L1122.26 48.3341ZM1112.19 73.1317L1111.94 73.7011L1112.52 73.9569L1112.76 73.3655L1112.19 73.1317ZM1095.41 67.1654L1095.23 67.7618L1095.24 67.7643L1095.25 67.7666L1095.41 67.1654ZM1072.1 66.4196L1072.33 66.9988L1072.34 66.9935L1072.35 66.9875L1072.1 66.4196ZM1067.07 70.335L1067.58 70.6887L1067.58 70.68L1067.59 70.6711L1067.07 70.335ZM1068 83.0134L1067.53 83.4227L1067.54 83.4302L1067.55 83.4375L1068 83.0134ZM1076.2 88.7933L1076.5 88.2449L1076.2 88.7933ZM1090.93 96.0648L1090.67 96.6274L1090.68 96.631L1090.93 96.0648ZM1107.9 105.76L1107.53 106.26L1107.9 105.76ZM1118.71 118.066L1118.16 118.355L1118.17 118.361L1118.71 118.066ZM1121.82 135.405C1121.82 142.88 1119.98 149.667 1116.32 155.781L1117.38 156.421C1121.17 150.105 1123.06 143.095 1123.06 135.405H1121.82ZM1116.32 155.776C1112.66 161.75 1107.17 166.523 1099.8 170.084L1100.34 171.203C1107.89 167.555 1113.58 162.633 1117.38 156.426L1116.32 155.776ZM1099.81 170.081C1092.45 173.511 1083.17 175.243 1071.91 175.243V176.486C1083.28 176.486 1092.77 174.737 1100.33 171.207L1099.81 170.081ZM1071.91 175.243C1066.72 175.243 1061.9 174.934 1057.46 174.317L1057.29 175.548C1061.79 176.174 1066.67 176.486 1071.91 176.486V175.243ZM1057.46 174.317C1053.01 173.699 1048.75 172.834 1044.67 171.722L1044.34 172.922C1048.47 174.048 1052.79 174.923 1057.29 175.548L1057.46 174.317ZM1044.69 171.729C1040.74 170.495 1036.86 168.953 1033.03 167.101L1032.49 168.22C1036.37 170.098 1040.31 171.663 1044.32 172.915L1044.69 171.729ZM1033.38 167.661V138.761H1032.14V167.661H1033.38ZM1032.5 139.325C1039.24 142.445 1046.1 145.065 1053.09 147.187L1053.45 145.997C1046.52 143.893 1039.71 141.293 1033.02 138.197L1032.5 139.325ZM1053.09 147.188C1060.23 149.316 1067.06 150.383 1073.59 150.383V149.14C1067.2 149.14 1060.48 148.095 1053.45 145.997L1053.09 147.188ZM1073.59 150.383C1077.74 150.383 1081.12 149.882 1083.71 148.847L1083.24 147.693C1080.86 148.647 1077.65 149.14 1073.59 149.14V150.383ZM1083.72 148.841C1086.4 147.692 1088.38 146.195 1089.59 144.318L1088.55 143.646C1087.51 145.249 1085.77 146.611 1083.23 147.699L1083.72 148.841ZM1089.59 144.327C1090.9 142.354 1091.55 140.12 1091.55 137.643H1090.31C1090.31 139.889 1089.72 141.88 1088.55 143.637L1089.59 144.327ZM1091.55 137.643C1091.55 134.622 1090.5 132.039 1088.39 129.932L1087.51 130.811C1089.38 132.681 1090.31 134.946 1090.31 137.643H1091.55ZM1088.42 129.96C1086.48 127.766 1083.61 125.734 1079.84 123.849L1079.28 124.961C1082.97 126.805 1085.69 128.751 1087.48 130.782L1088.42 129.96ZM1079.85 123.856C1076.11 121.861 1071.56 119.618 1066.21 117.129L1065.69 118.256C1071.02 120.739 1075.55 122.971 1079.27 124.953L1079.85 123.856ZM1066.2 117.123C1062.24 115.393 1058.35 113.415 1054.51 111.189L1053.89 112.264C1057.76 114.513 1061.7 116.512 1065.7 118.262L1066.2 117.123ZM1054.53 111.201C1050.84 108.861 1047.45 106.215 1044.38 103.261L1043.52 104.157C1046.66 107.17 1050.11 109.868 1053.87 112.251L1054.53 111.201ZM1044.4 103.279C1041.47 100.227 1039.08 96.6224 1037.24 92.4579L1036.11 92.9596C1038 97.2473 1040.46 100.976 1043.5 104.14L1044.4 103.279ZM1037.25 92.4779C1035.55 88.2165 1034.69 83.2018 1034.69 77.42H1033.44C1033.44 83.3223 1034.32 88.5 1036.1 92.9395L1037.25 92.4779ZM1034.69 77.42C1034.69 69.1891 1036.59 62.3587 1040.36 56.8904L1039.33 56.1853C1035.39 61.9038 1033.44 68.9949 1033.44 77.42H1034.69ZM1040.36 56.8928C1044.26 51.2815 1049.69 47.0017 1056.68 44.0593L1056.2 42.9137C1049.02 45.9376 1043.39 50.3587 1039.34 56.1829L1040.36 56.8928ZM1056.68 44.0593C1063.67 41.1151 1071.92 39.6332 1081.42 39.6332V38.3903C1071.79 38.3903 1063.38 39.8916 1056.2 42.9137L1056.68 44.0593ZM1081.42 39.6332C1089.21 39.6332 1096.36 40.4983 1102.89 42.2229L1103.21 41.0211C1096.56 39.2654 1089.3 38.3903 1081.42 38.3903V39.6332ZM1102.89 42.2229C1109.45 43.9548 1115.82 46.1815 1122.01 48.903L1122.51 47.7653C1116.26 45.0176 1109.83 42.7696 1103.21 41.0211L1102.89 42.2229ZM1121.68 48.1003L1111.61 72.8979L1112.76 73.3655L1122.83 48.5679L1121.68 48.1003ZM1112.44 72.5623C1106.45 69.9416 1100.82 67.9411 1095.56 66.5642L1095.25 67.7666C1100.43 69.1242 1106 71.1012 1111.94 73.7011L1112.44 72.5623ZM1095.58 66.5689C1090.43 65.0623 1085.4 64.3065 1080.49 64.3065V65.5495C1085.27 65.5495 1090.19 66.2853 1095.23 67.7618L1095.58 66.5689ZM1080.49 64.3065C1077.08 64.3065 1074.19 64.8114 1071.85 65.8517L1072.35 66.9875C1074.49 66.039 1077.19 65.5495 1080.49 65.5495V64.3065ZM1071.88 65.8403C1069.54 66.7501 1067.75 68.1312 1066.54 69.9989L1067.59 70.6711C1068.63 69.0583 1070.19 67.8292 1072.33 66.9988L1071.88 65.8403ZM1066.56 69.9812C1065.36 71.715 1064.77 73.7692 1064.77 76.1149H1066.01C1066.01 73.9858 1066.54 72.1867 1067.58 70.6887L1066.56 69.9812ZM1064.77 76.1149C1064.77 78.8777 1065.69 81.3222 1067.53 83.4227L1068.47 82.6042C1066.82 80.7272 1066.01 78.5726 1066.01 76.1149H1064.77ZM1067.55 83.4375C1069.35 85.3742 1072.16 87.339 1075.91 89.3417L1076.5 88.2449C1072.79 86.2701 1070.13 84.3817 1068.45 82.5894L1067.55 83.4375ZM1075.91 89.3417C1079.65 91.3375 1084.57 93.7663 1090.67 96.6274L1091.2 95.5022C1085.11 92.6455 1080.21 90.2267 1076.5 88.2449L1075.91 89.3417ZM1090.68 96.631C1097.23 99.6001 1102.85 102.811 1107.53 106.26L1108.27 105.26C1103.5 101.748 1097.81 98.4958 1091.19 95.4986L1090.68 96.631ZM1107.53 106.26C1112.19 109.691 1115.73 113.723 1118.16 118.355L1119.26 117.776C1116.73 112.962 1113.06 108.79 1108.27 105.26L1107.53 106.26ZM1118.17 118.361C1120.59 122.844 1121.82 128.515 1121.82 135.405H1123.06C1123.06 128.374 1121.81 122.485 1119.26 117.77L1118.17 118.361Z" fill="#535353" mask="url(#path-1-outside-1_1_159)"/>
</svg>
