<svg width="101" height="157" viewBox="0 0 101 157" fill="none" xmlns="http://www.w3.org/2000/svg">
<path d="M31.9557 81.8069L31.9555 81.8069L31.952 81.8181C30.8145 85.3804 30.2495 89.3587 30.2495 93.7476V101.95V102.45H30.7495H59.9186H60.4186V101.95V96.2714C60.4186 93.6571 60.8309 91.4899 61.6319 89.7505C62.4306 88.0161 63.9127 86.1791 66.1185 84.2438C68.4806 82.2947 71.6832 79.922 75.7308 77.1244C81.4847 73.1861 86.1301 69.3791 89.6582 65.7019C93.3339 61.8764 96.0301 57.7574 97.7358 53.3441C99.5827 48.9276 100.5 43.8848 100.5 38.2252C100.5 27.1421 96.238 18.0974 87.7294 11.1317C79.3558 4.02153 67.6146 0.5 52.5739 0.5C42.7392 0.5 33.5979 1.7671 25.1531 4.30569C16.7216 6.70019 8.91865 10.0111 1.74608 14.2396L1.34311 14.4771L1.55334 14.895L14.1443 39.9221L14.3747 40.38L14.8267 40.1384C21.0986 36.786 27.1549 34.2054 32.9961 32.3934C38.8287 30.5841 44.5146 29.6818 50.0557 29.6818C55.0277 29.6818 58.9006 30.7204 61.7261 32.7431L61.737 32.7509L61.7483 32.7581C64.6823 34.6293 66.1338 37.2746 66.1338 40.749C66.1338 43.0598 65.66 45.3035 64.7091 47.4837C63.7646 49.5094 62.133 51.6309 59.7854 53.8452C57.434 56.0632 54.0305 58.7102 49.5637 61.788C44.7854 65.0276 40.9736 68.2783 38.1399 71.5432C35.3021 74.6728 33.238 78.0942 31.9557 81.8069ZM32.345 122.786C28.3823 125.584 26.4722 130.546 26.4722 137.493C26.4722 144.039 28.3929 148.908 32.3307 151.978C36.2101 155.002 41.0102 156.5 46.6981 156.5C51.9745 156.5 56.5606 154.997 60.4322 151.981C64.5106 148.913 66.5043 144.043 66.5043 137.493C66.5043 130.541 64.5213 125.579 60.4182 122.784C56.5478 119.913 51.9666 118.485 46.6981 118.485C41.0181 118.485 36.223 119.909 32.345 122.786Z" stroke="#626262"/>
</svg>
