<svg width="35" height="37" viewBox="0 0 35 37" fill="none" xmlns="http://www.w3.org/2000/svg">
<path d="M17.9375 18.83C18.7156 18.1372 19.3398 17.2803 19.7675 16.3175C20.1953 15.3547 20.4167 14.3086 20.4167 13.25C20.4167 11.2609 19.6484 9.35322 18.281 7.9467C16.9135 6.54018 15.0589 5.75 13.125 5.75C11.1911 5.75 9.33648 6.54018 7.96902 7.9467C6.60157 9.35322 5.83334 11.2609 5.83334 13.25C5.83333 14.3086 6.05472 15.3547 6.48248 16.3175C6.91025 17.2803 7.53438 18.1372 8.31251 18.83C6.27105 19.7808 4.53902 21.3163 3.32352 23.2528C2.10802 25.1893 1.46049 27.445 1.45834 29.75C1.45834 30.1478 1.61199 30.5294 1.88548 30.8107C2.15897 31.092 2.5299 31.25 2.91668 31.25C3.30345 31.25 3.67438 31.092 3.94787 30.8107C4.22136 30.5294 4.37501 30.1478 4.37501 29.75C4.37501 27.3631 5.29688 25.0739 6.93783 23.386C8.57877 21.6982 10.8044 20.75 13.125 20.75C15.4457 20.75 17.6713 21.6982 19.3122 23.386C20.9531 25.0739 21.875 27.3631 21.875 29.75C21.875 30.1478 22.0287 30.5294 22.3021 30.8107C22.5756 31.092 22.9466 31.25 23.3333 31.25C23.7201 31.25 24.0911 31.092 24.3645 30.8107C24.638 30.5294 24.7917 30.1478 24.7917 29.75C24.7895 27.445 24.142 25.1893 22.9265 23.2528C21.711 21.3163 19.979 19.7808 17.9375 18.83V18.83ZM13.125 17.75C12.2597 17.75 11.4139 17.4861 10.6944 16.9916C9.97492 16.4971 9.41417 15.7943 9.08304 14.9721C8.7519 14.1498 8.66526 13.245 8.83407 12.3721C9.00288 11.4992 9.41956 10.6974 10.0314 10.068C10.6433 9.43868 11.4228 9.0101 12.2715 8.83647C13.1202 8.66283 13.9998 8.75195 14.7992 9.09254C15.5987 9.43314 16.282 10.0099 16.7627 10.7499C17.2434 11.49 17.5 12.36 17.5 13.25C17.5 14.4435 17.0391 15.5881 16.2186 16.432C15.3981 17.2759 14.2853 17.75 13.125 17.75ZM27.3292 18.23C28.2625 17.149 28.8721 15.8136 29.0847 14.3845C29.2973 12.9554 29.1039 11.4936 28.5276 10.175C27.9513 8.85639 27.0168 7.73719 25.8365 6.95213C24.6563 6.16708 23.2806 5.74961 21.875 5.75C21.4882 5.75 21.1173 5.90804 20.8438 6.18934C20.5703 6.47064 20.4167 6.85218 20.4167 7.25C20.4167 7.64783 20.5703 8.02936 20.8438 8.31066C21.1173 8.59196 21.4882 8.75 21.875 8.75C23.0353 8.75 24.1481 9.22411 24.9686 10.068C25.7891 10.9119 26.25 12.0565 26.25 13.25C26.2479 14.0379 26.0448 14.8114 25.6609 15.4931C25.277 16.1749 24.7259 16.7411 24.0625 17.135C23.8463 17.2633 23.6657 17.4465 23.538 17.6671C23.4104 17.8877 23.3399 18.1384 23.3333 18.395C23.3272 18.6496 23.3843 18.9017 23.4991 19.1274C23.6139 19.3531 23.7827 19.545 23.9896 19.685L24.5583 20.075L24.7479 20.18C26.5058 21.0376 27.9888 22.394 29.0223 24.0895C30.0557 25.785 30.5966 27.7489 30.5813 29.75C30.5813 30.1478 30.7349 30.5294 31.0084 30.8107C31.2819 31.092 31.6528 31.25 32.0396 31.25C32.4264 31.25 32.7973 31.092 33.0708 30.8107C33.3443 30.5294 33.4979 30.1478 33.4979 29.75C33.5098 27.4481 32.9493 25.1814 31.8696 23.1651C30.79 21.1488 29.227 19.45 27.3292 18.23V18.23Z" fill="white"/>
</svg>
